<svg width="75" height="62" viewBox="0 0 75 62" fill="none" xmlns="http://www.w3.org/2000/svg">
<mask id="mask0_165_729" style="mask-type:alpha" maskUnits="userSpaceOnUse" x="0" y="45" width="75" height="17">
<path fill-rule="evenodd" clip-rule="evenodd" d="M10.6381 52.0716C10.6381 52.4513 10.5429 52.8096 10.3539 53.1455C9.78558 54.1376 8.71008 54.6336 7.12632 54.6336H0.800232V45.7983H7.12632C8.63268 45.7983 9.68691 46.2675 10.289 47.2082C10.5213 47.5872 10.6381 47.993 10.6381 48.4239C10.6381 49.1571 10.328 49.7736 9.70849 50.2742C10.328 50.7566 10.6381 51.3567 10.6381 52.0716ZM9.15332 48.411C9.15332 48.0405 8.93806 47.7556 8.50794 47.5573C8.17236 47.4105 7.78967 47.3377 7.35886 47.3377H2.33698V53.0941H7.35886C7.78059 53.0941 8.1549 53.0292 8.48186 52.8998C8.92945 52.7107 9.15332 52.4388 9.15332 52.0853C9.15332 51.7225 8.92945 51.4469 8.48186 51.2571C8.14651 51.1194 7.7722 51.0498 7.35886 51.0498H3.24059V49.5103H7.35886C7.78967 49.5103 8.17236 49.433 8.50794 49.2775C8.93783 49.0793 9.15332 48.7906 9.15332 48.411ZM23.3804 50.1318C23.3804 51.434 22.9625 52.5118 22.1284 53.3661C21.2935 54.2197 20.23 54.6466 18.9391 54.6466H16.4731C15.1911 54.6466 14.1298 54.2194 13.2911 53.3661C12.4522 52.512 12.0324 51.434 12.0324 50.1318C12.0324 48.8381 12.4476 47.7947 13.2782 47.0011C14.1085 46.208 15.1738 45.8108 16.4733 45.8108H18.9393C20.2472 45.8108 21.315 46.208 22.1408 47.0011C22.9666 47.7947 23.3804 48.8381 23.3804 50.1318ZM21.8572 50.2606C21.8572 49.4069 21.5834 48.7088 21.0371 48.1653C20.4908 47.6217 19.7916 47.35 18.9391 47.35H16.4731C15.6298 47.35 14.935 47.6217 14.3887 48.1653C13.8417 48.7088 13.5686 49.4069 13.5686 50.2606C13.5686 51.1064 13.8417 51.7923 14.3887 52.3181C14.935 52.8439 15.6298 53.1071 16.4731 53.1071H18.9391C19.7914 53.1071 20.4908 52.8439 21.0371 52.3181C21.5832 51.792 21.8572 51.1064 21.8572 50.2606ZM34.8958 54.6596H32.6881L29.5896 51.4383L26.4789 54.6596H24.2713L28.5699 50.248L24.2713 45.8106H26.414C29.3151 48.7888 31.9985 51.677 34.8958 54.6596ZM30.7482 47.8774L31.8517 48.9618L34.8958 45.8108H32.766L30.7482 47.8774ZM43.9718 47.35H40.4984V54.6466H38.9752V47.35H35.4894V45.8106H43.9718V47.35ZM52.2338 50.9341H47.1988V49.3947H52.2338V50.9341ZM52.634 54.6466V53.1071H46.5538V47.35H52.634V45.8106H45.0171V54.6464L52.634 54.6466ZM63.5427 54.6466H58.5726C57.2899 54.6466 56.2293 54.2194 55.3904 53.3661C54.551 52.512 54.1317 51.434 54.1317 50.1318C54.1317 48.8381 54.5462 47.7947 55.3772 47.0011C56.2076 46.208 57.2729 45.8108 58.5724 45.8108H63.5425V47.3503H58.5724C57.7289 47.3503 57.0335 47.6219 56.4873 48.1655C55.941 48.709 55.6678 49.4072 55.6678 50.2608C55.6678 51.1066 55.941 51.7925 56.4873 52.3183C57.0335 52.8441 57.7291 53.1073 58.5724 53.1073H63.5425L63.5427 54.6466ZM74 54.6466H72.4636V50.9725H67.2867V49.4331H72.4636V45.8108H74V54.6466ZM66.59 54.6466H65.0536V45.8108H66.59V54.6466Z" fill="#06132C" stroke="#231F20" stroke-width="0.5" stroke-miterlimit="2.6131"/>
<path fill-rule="evenodd" clip-rule="evenodd" d="M6.55496 60.9442H7.12642V59.8956H7.77252C8.48805 59.8956 9.0738 59.5141 9.0738 58.7832V58.7735C9.0738 58.1169 8.59968 57.6832 7.83718 57.6832H6.55472L6.55496 60.9442ZM7.12642 59.3788V58.2056H7.79067C8.21881 58.2056 8.49262 58.4059 8.49262 58.7875V58.7973C8.49262 59.1367 8.22331 59.379 7.79067 59.379L7.12642 59.3788ZM9.98353 60.9442H10.555V59.8078H11.2712L12.07 60.9442H12.7493L11.8709 59.7096C12.3211 59.5789 12.6421 59.2579 12.6421 58.7221V58.713C12.6421 58.4291 12.5442 58.1865 12.3722 58.0096C12.1633 57.8048 11.8422 57.6832 11.4334 57.6832H9.98353V60.9442ZM10.555 59.2995V58.2053H11.3867C11.8098 58.2053 12.0607 58.3966 12.0607 58.7455V58.7546C12.0607 59.0856 11.8005 59.2995 11.3919 59.2995H10.555ZM15.2195 61.0001C16.2186 61.0001 16.9258 60.2317 16.9258 59.3138V59.3047C16.9258 58.3874 16.2284 57.6274 15.2293 57.6274C14.2302 57.6274 13.5237 58.3966 13.5237 59.3138V59.3229C13.5237 60.2408 14.2204 61.0001 15.2195 61.0001ZM15.2293 60.469C14.5832 60.469 14.1231 59.947 14.1231 59.3138V59.3047C14.1231 58.6709 14.5741 58.1539 15.2195 58.1539C15.8664 58.1539 16.3258 58.6804 16.3258 59.3138V59.3229C16.3258 59.9566 15.8747 60.469 15.2293 60.469ZM17.9423 60.9442H18.5138V59.6162H20.1538V59.0949H18.5138V58.2056H20.3634V57.6834H17.9423V60.9442ZM21.3147 60.9442H23.7507V60.4314H21.8862V59.5557H23.5178V59.0442H21.8862V58.1965H23.7274V57.6836H21.3147V60.9442ZM25.8917 60.9904C26.5749 60.9904 27.0536 60.6276 27.0536 60.0172V60.0073C27.0536 59.4677 26.7002 59.2201 26.0124 59.0531C25.3844 58.9035 25.2365 58.7916 25.2365 58.5407V58.5308C25.2365 58.3163 25.4311 58.1446 25.7665 58.1446C26.0629 58.1446 26.3563 58.2611 26.6487 58.4795L26.9557 58.0471C26.626 57.7812 26.2492 57.6368 25.7749 57.6368C25.1292 57.6368 24.6641 58.0237 24.6641 58.582V58.5918C24.6641 59.1924 25.0548 59.3973 25.7467 59.565C26.3513 59.7048 26.4817 59.8303 26.4817 60.0631V60.0728C26.4817 60.3154 26.2585 60.4825 25.905 60.4825C25.5055 60.4825 25.1895 60.329 24.878 60.0585L24.5341 60.4689C24.925 60.818 25.3939 60.9904 25.8917 60.9904ZM28.0839 60.9442H28.6553V57.6834H28.0839V60.9442ZM31.4008 61.0001C32.3999 61.0001 33.1063 60.2317 33.1063 59.3138V59.3047C33.1063 58.3874 32.4094 57.6274 31.4099 57.6274C30.411 57.6274 29.7043 58.3966 29.7043 59.3138V59.3229C29.7043 60.2408 30.4017 61.0001 31.4008 61.0001ZM31.4099 60.469C30.7645 60.469 30.3039 59.947 30.3039 59.3138V59.3047C30.3039 58.6709 30.7547 58.1539 31.401 58.1539C32.0472 58.1539 32.507 58.6804 32.507 59.3138V59.3229C32.507 59.9566 32.056 60.469 31.4099 60.469ZM34.1229 60.9442H34.6853V58.6248L36.4792 60.9442H36.9581V57.6834H36.3961V59.938L34.6529 57.6834H34.1229V60.9442ZM37.8399 60.9442H38.4257L38.7605 60.1569H40.2986L40.6289 60.9442H41.2328L39.8012 57.6607H39.2711L37.8399 60.9442ZM38.9692 59.6491L39.527 58.3452L40.0895 59.6491H38.9692ZM42.1144 60.9442H44.396V60.4221H42.6859V57.6832H42.1144V60.9442ZM46.9409 60.9442H47.5172V58.2144H48.5494V57.6832H45.9096V58.2144H46.9412L46.9409 60.9442ZM48.7804 60.9442H49.3655L49.7003 60.1569H51.2384L51.5688 60.9442H52.1727L50.7414 57.6607H50.2115L48.7804 60.9442ZM49.9097 59.6491L50.4676 58.3452L51.0295 59.6491H49.9097ZM54.3928 61.0001C54.9694 61.0001 55.4295 60.7666 55.7505 60.4923V59.1233H54.3655V59.6211H55.1972V60.2315C54.9973 60.3798 54.7185 60.478 54.4116 60.478C53.7473 60.478 53.3054 59.9846 53.3054 59.3138V59.3047C53.3054 58.6807 53.7609 58.1539 54.3603 58.1539C54.7743 58.1539 55.0207 58.2892 55.2718 58.5032L55.6337 58.0701C55.2995 57.786 54.9506 57.6274 54.3837 57.6274C53.4033 57.6274 52.706 58.4011 52.706 59.3138V59.3229C52.7057 60.2734 53.3755 61.0001 54.3928 61.0001ZM56.8177 60.9442H59.1V60.4221H57.3891V57.6832H56.8177V60.9442ZM60.0512 60.9442H60.6226V57.6834H60.0512V60.9442ZM61.8157 60.9442H62.3781V58.6248L64.1726 60.9442H64.6513V57.6834H64.0889V59.938L62.3457 57.6834H61.8157V60.9442ZM65.8115 60.9442H68.2468V60.4314H66.383V59.5557H68.0145V59.0442H66.383V58.1965H68.2235V57.6836H65.8115V60.9442Z" fill="#06132C" stroke="#231F20" stroke-width="0.5" stroke-miterlimit="2.6131"/>
</mask>
<g mask="url(#mask0_165_729)">
<path d="M75.3723 45.7498H-2.2438V62.5247H75.3723V45.7498Z" fill="#101111"/>
</g>
<mask id="mask1_165_729" style="mask-type:alpha" maskUnits="userSpaceOnUse" x="22" y="0" width="38" height="35">
<path fill-rule="evenodd" clip-rule="evenodd" d="M30.0022 11.9102L35.1216 6.76306C36.6664 5.2104 36.5184 4.69322 36.0132 4.35086C35.1686 3.78004 33.7083 4.74869 32.8471 5.61162L30.6139 7.84945L30.6098 7.84602C28.9736 9.45161 26.9221 10.7099 24.8769 10.0995C23.4693 9.68013 21.6457 7.43729 24.394 4.21447C24.7102 3.84211 25.4012 2.99758 25.4012 2.99758H28.8348C28.1513 3.68252 27.3652 4.51818 26.8949 5.07309C25.6004 6.59845 25.7719 7.05857 26.2567 7.33318C26.8626 7.67644 27.723 7.20906 28.4197 6.59686C30.4086 4.85212 31.389 3.36405 33.6098 1.86755C34.8623 1.02461 36.393 0.923667 37.7576 1.4513C39.2576 2.03053 41.055 4.63459 37.7782 7.91633L32.1001 13.6261C30.3128 15.4236 29.6844 16.2749 28.2801 17.9641C26.8314 19.7064 27.0301 20.2259 27.5834 20.5321C28.1447 20.8423 28.8895 20.5437 29.5696 20.044L29.5581 20.0192C31.0449 18.5237 32.5227 17.0378 34.0111 15.5413L43.0197 6.48297C44.4487 5.04604 46.3344 2.91417 48.0249 1.67341C49.804 0.367184 51.8449 -0.450971 53.7766 0.266929C55.336 0.846845 57.2299 3.51634 53.8839 6.95445C46.9732 14.0836 39.5348 21.2072 32.4036 28.3439L31.8877 28.9643C30.4387 30.7065 30.6377 31.226 31.1908 31.5322C31.8687 31.9078 32.8147 31.3924 33.5892 30.7091C34.7755 29.6602 36.6314 27.5836 37.75 26.4587L51.5627 12.5574L51.5892 12.6931C53.4581 11.2173 55.6575 10.2155 57.7347 10.9881C59.2942 11.5672 61.188 14.236 57.8427 17.675L54.9575 20.4818L47.2153 28.2671C46.6399 28.9587 44.1955 31.3942 45.0599 31.8723C45.8466 32.3074 47.0147 31.4729 47.7933 30.634L50.0016 28.5501C51.704 27.243 53.6854 26.3835 55.5593 27.0793C57.0049 27.617 58.7608 30.093 55.6591 33.2813L54.6074 34.3658C53.4168 34.3658 52.2362 34.3549 51.0443 34.3549L51.6593 33.7387L53.0964 32.208C54.5586 30.6991 54.4109 30.2044 53.9214 29.8827C53.1056 29.3458 51.7146 30.2939 50.9007 31.1319C50.382 31.6645 49.8199 32.2801 49.2833 32.7772C47.6313 34.3045 45.6302 35.4136 43.6193 34.8362C42.1143 34.4043 40.146 32.035 43.0405 28.569L45.1681 26.5017L53.0629 18.5634L52.9975 18.4973L55.0797 16.5168C56.6566 14.8905 56.4972 14.3576 55.9688 14.0109C55.0888 13.4319 53.5895 14.4526 52.7119 15.3569L52.1067 15.9791L52.0347 15.9064L39.639 28.3831C38.3989 29.6304 37.2803 30.9143 36.0783 32.1089C34.2514 33.924 31.9621 35.3418 29.6596 34.6809C28.0614 34.221 25.9704 31.7046 29.0447 28.0207C30.6867 26.0477 31.7897 25.1475 33.6354 23.2996L50.7849 6.12994L50.7916 6.13813L51.1219 5.79714C52.6988 4.17083 52.5393 3.6373 52.0119 3.29062C51.4397 2.91417 50.6069 3.21288 49.853 3.71663C49.6497 3.85235 47.1402 6.16359 46.8718 6.43253L35.7557 17.6111C34.4951 18.8784 32.4303 21.3173 31.0301 22.3621L30.7627 22.6316L30.7364 22.5746C29.2858 23.5815 27.6726 24.1454 26.053 23.6806C24.4531 23.2213 22.3619 20.7042 25.438 17.0212C27.1308 14.9851 28.0399 13.8839 30.0022 11.9102Z" fill="url(#paint0_linear_165_729)"/>
</mask>
<g mask="url(#mask1_165_729)">
<path d="M78.4167 -9.1499H6.88831V42.6999H78.4167V-9.1499Z" fill="#101111"/>
</g>
<defs>
<linearGradient id="paint0_linear_165_729" x1="53.1772" y1="31.2503" x2="29.9989" y2="3.68391" gradientUnits="userSpaceOnUse">
<stop stop-color="#66499C"/>
<stop offset="1" stop-color="#58AFE2"/>
</linearGradient>
</defs>
</svg>
